<svg width="32" height="32" viewBox="0 0 32 32" fill="none" xmlns="http://www.w3.org/2000/svg">
<path d="M12.9467 13.9466H15.932C16.2046 13.9466 16.4661 13.8383 16.6589 13.6456C16.8517 13.4528 16.96 13.1913 16.96 12.9186C16.96 12.646 16.8517 12.3845 16.6589 12.1917C16.4661 11.999 16.2046 11.8906 15.932 11.8906H12.9467C12.674 11.8906 12.4126 11.999 12.2198 12.1917C12.027 12.3845 11.9187 12.646 11.9187 12.9186C11.9187 13.1913 12.027 13.4528 12.2198 13.6456C12.4126 13.8383 12.674 13.9466 12.9467 13.9466ZM25.904 2.66931H6.07334C5.16809 2.67282 4.30091 3.03399 3.6608 3.6741C3.02068 4.31422 2.65952 5.18139 2.65601 6.08664V25.9173C2.65917 26.8228 3.02018 27.6903 3.66033 28.3307C4.30048 28.9711 5.16786 29.3325 6.07334 29.336H25.904C26.8097 29.3328 27.6774 28.9716 28.3179 28.3312C28.9583 27.6907 29.3195 26.823 29.3227 25.9173V6.08664C29.3192 5.18116 28.9578 4.31379 28.3174 3.67364C27.677 3.03348 26.8095 2.67247 25.904 2.66931ZM24.4747 15.5733L24.448 19.14C24.4378 20.5628 23.8666 21.9241 22.8585 22.9282C21.8504 23.9323 20.4869 24.4981 19.064 24.5026H12.8773C11.453 24.4995 10.0876 23.9338 9.07844 22.9286C8.06929 21.9234 7.49813 20.5603 7.48934 19.136V12.876C7.49742 11.4506 8.06833 10.0862 9.07773 9.07974C10.0871 8.07334 11.4533 7.50649 12.8787 7.50264H16.6427C17.51 7.65321 18.333 7.99444 19.0524 8.50171C19.7718 9.00898 20.3696 9.66963 20.8027 10.436C21.0994 10.9992 21.2644 11.6224 21.2853 12.2586C21.376 12.9333 21.4227 13.4333 21.7253 13.712C22.152 14.0973 23.736 13.8373 24.0493 14.0826L24.2867 14.2693L24.4333 14.564L24.48 14.8013L24.4747 15.5733ZM19.012 18.0573H12.9467C12.6815 18.0573 12.4271 18.1627 12.2396 18.3502C12.052 18.5377 11.9467 18.7921 11.9467 19.0573C11.9467 19.3225 12.052 19.5769 12.2396 19.7644C12.4271 19.952 12.6815 20.0573 12.9467 20.0573H19.012C19.2772 20.0573 19.5316 19.952 19.7191 19.7644C19.9067 19.5769 20.012 19.3225 20.012 19.0573C20.012 18.7921 19.9067 18.5377 19.7191 18.3502C19.5316 18.1627 19.2772 18.0573 19.012 18.0573Z" fill="white"/>
</svg>
